<svg xmlns="http://www.w3.org/2000/svg" viewBox="0 0 140 140">
  <!-- Dark rounded-square backdrop -->
  <rect x="6" y="6" width="128" height="128" rx="26" fill="#1b1b30" shape-rendering="geometricPrecision"/>

  <!-- Milkshake artwork (100x130 design space), centered + scaled -->
  <g transform="translate(29,17) scale(0.82)" shape-rendering="crispEdges">
    <!-- Straw: red/white stripes -->
    <rect x="30" y="0"  width="6" height="10" fill="#E8433D"/>
    <rect x="30" y="10" width="6" height="10" fill="#FFFFFF"/>
    <rect x="30" y="20" width="6" height="10" fill="#E8433D"/>
    <rect x="30" y="30" width="6" height="10" fill="#FFFFFF"/>

    <!-- Whipped cream dome -->
    <rect x="42" y="16" width="20" height="8" fill="#FFFFFF"/>
    <rect x="32" y="24" width="40" height="8" fill="#FFFFFF"/>
    <rect x="18" y="32" width="24" height="8" fill="#FFFFFF"/>
    <rect x="58" y="32" width="24" height="8" fill="#FFFFFF"/>
    <rect x="18" y="40" width="64" height="8" fill="#FFFFFF"/>
    <rect x="12" y="48" width="76" height="8" fill="#FFFFFF"/>
    <rect x="10" y="56" width="80" height="8" fill="#FFFFFF"/>
    <!-- Whipped cream shadow (lower-right) -->
    <rect x="80" y="56" width="10" height="8" fill="#E8E0D0"/>
    <rect x="80" y="48" width="8"  height="8" fill="#E8E0D0"/>
    <rect x="74" y="40" width="8"  height="8" fill="#E8E0D0"/>
    <!-- Crushed Oreo bits on cream -->
    <rect x="28" y="42" width="4" height="4" fill="#28282C"/>
    <rect x="50" y="44" width="4" height="4" fill="#28282C"/>
    <rect x="66" y="34" width="4" height="4" fill="#28282C"/>
    <rect x="24" y="50" width="4" height="4" fill="#28282C"/>

    <!-- Oreo cookie garnish (horizontal, resting on cream) -->
    <rect x="44" y="2"  width="20" height="5" fill="#28282C"/>
    <rect x="44" y="7"  width="20" height="4" fill="#FBF4E6"/>
    <rect x="44" y="11" width="20" height="5" fill="#28282C"/>
    <rect x="48" y="3"  width="2"  height="3" fill="#46464C"/>
    <rect x="58" y="3"  width="2"  height="3" fill="#46464C"/>

    <!-- Glass rim -->
    <rect x="10" y="64" width="80" height="8" fill="#C4B69A"/>

    <!-- Cup body: stepped trapezoid filled with cookies-and-cream shake -->
    <rect x="12" y="72" width="76" height="10" fill="#EFE5D2"/>
    <rect x="15" y="82" width="70" height="10" fill="#EFE5D2"/>
    <rect x="19" y="92" width="62" height="10" fill="#EFE5D2"/>
    <rect x="23" y="102" width="54" height="10" fill="#EFE5D2"/>
    <rect x="27" y="112" width="46" height="10" fill="#EFE5D2"/>
    <!-- Glass base -->
    <rect x="23" y="122" width="54" height="8" fill="#C4B69A"/>

    <!-- Glass highlight (left) -->
    <rect x="12" y="72"  width="8" height="10" fill="#FAF4E8"/>
    <rect x="15" y="82"  width="8" height="10" fill="#FAF4E8"/>
    <rect x="19" y="92"  width="8" height="10" fill="#FAF4E8"/>
    <rect x="23" y="102" width="8" height="10" fill="#FAF4E8"/>
    <rect x="27" y="112" width="8" height="10" fill="#FAF4E8"/>
    <!-- Glass shadow (right) -->
    <rect x="80" y="72"  width="8" height="10" fill="#DCCFB6"/>
    <rect x="77" y="82"  width="8" height="10" fill="#DCCFB6"/>
    <rect x="73" y="92"  width="8" height="10" fill="#DCCFB6"/>
    <rect x="69" y="102" width="8" height="10" fill="#DCCFB6"/>
    <rect x="65" y="112" width="8" height="10" fill="#DCCFB6"/>

    <!-- Oreo cookie chunks suspended in shake -->
    <rect x="24" y="74" width="6" height="5" fill="#28282C"/>
    <rect x="44" y="74" width="5" height="5" fill="#28282C"/>
    <rect x="66" y="75" width="5" height="5" fill="#28282C"/>
    <rect x="33" y="113" width="4" height="4" fill="#28282C"/>
    <rect x="60" y="113" width="4" height="4" fill="#28282C"/>

    <!-- Face: left eye -->
    <rect x="26" y="84" width="10" height="10" fill="#FFFFFF"/>
    <rect x="28" y="86" width="6"  height="6"  fill="#28282C"/>
    <rect x="30" y="87" width="2"  height="2"  fill="#FFFFFF"/>
    <!-- Face: right eye -->
    <rect x="64" y="84" width="10" height="10" fill="#FFFFFF"/>
    <rect x="66" y="86" width="6"  height="6"  fill="#28282C"/>
    <rect x="68" y="87" width="2"  height="2"  fill="#FFFFFF"/>

    <!-- Smile -->
    <rect x="32" y="104" width="4"  height="4" fill="#4A3D2A"/>
    <rect x="36" y="108" width="28" height="4" fill="#4A3D2A"/>
    <rect x="64" y="104" width="4"  height="4" fill="#4A3D2A"/>

    <!-- Rosy cheeks -->
    <rect x="27" y="97" width="8" height="6" fill="#F2A9B8"/>
    <rect x="63" y="97" width="8" height="6" fill="#F2A9B8"/>
  </g>
</svg>
