<svg xmlns="http://www.w3.org/2000/svg" viewBox="0 0 100 130" shape-rendering="crispEdges">
  <!-- Straw: red/yellow stripes -->
  <rect x="44" y="0"  width="6" height="10" fill="#FF4444"/>
  <rect x="44" y="10" width="6" height="10" fill="#FFE040"/>
  <rect x="44" y="20" width="6" height="10" fill="#FF4444"/>
  <rect x="44" y="30" width="6" height="10" fill="#FFE040"/>
  <rect x="44" y="40" width="6" height="10" fill="#FF4444"/>
  <rect x="44" y="50" width="6" height="10" fill="#FFE040"/>
  <rect x="44" y="60" width="6" height="10" fill="#FF4444"/>

  <!-- Cherry stem -->
  <rect x="64" y="2"  width="4" height="12" fill="#2D6A2D"/>
  <!-- Cherry body -->
  <rect x="60" y="12" width="14" height="12" fill="#CC1111"/>
  <!-- Cherry highlight -->
  <rect x="62" y="14" width="5"  height="5"  fill="#FF5555"/>

  <!-- Whipped cream dome -->
  <rect x="40" y="16" width="20" height="8" fill="#FFF8E7"/>
  <rect x="34" y="24" width="32" height="8" fill="#FFF8E7"/>
  <rect x="20" y="32" width="22" height="8" fill="#FFF8E7"/>
  <rect x="58" y="32" width="22" height="8" fill="#FFF8E7"/>
  <rect x="20" y="40" width="60" height="8" fill="#FFF8E7"/>
  <rect x="14" y="48" width="72" height="8" fill="#FFF8E7"/>
  <rect x="10" y="56" width="80" height="8" fill="#FFF8E7"/>
  <!-- Cream shadows -->
  <rect x="10" y="56" width="10" height="8" fill="#DDD0B0"/>
  <rect x="80" y="56" width="10" height="8" fill="#DDD0B0"/>
  <rect x="14" y="48" width="8"  height="8" fill="#DDD0B0"/>
  <rect x="78" y="48" width="8"  height="8" fill="#DDD0B0"/>

  <!-- Cup rim -->
  <rect x="10" y="64" width="80" height="8" fill="#9B2556"/>
  <!-- Cream drips over rim -->
  <rect x="14" y="64" width="8"  height="12" fill="#FFF8E7"/>
  <rect x="16" y="76" width="6"  height="8"  fill="#FFF8E7"/>
  <rect x="78" y="64" width="8"  height="12" fill="#FFF8E7"/>
  <rect x="78" y="76" width="5"  height="6"  fill="#FFF8E7"/>

  <!-- Cup body: stepped trapezoid -->
  <rect x="12" y="72" width="76" height="10" fill="#E8527A"/>
  <rect x="15" y="82" width="70" height="10" fill="#E8527A"/>
  <rect x="19" y="92" width="62" height="10" fill="#E8527A"/>
  <rect x="23" y="102" width="54" height="10" fill="#E8527A"/>
  <rect x="27" y="112" width="46" height="10" fill="#E8527A"/>
  <!-- Cup base -->
  <rect x="23" y="122" width="54" height="8" fill="#9B2556"/>

  <!-- Cup highlights (left stripe) -->
  <rect x="12" y="72"  width="8" height="10" fill="#F8A8C8"/>
  <rect x="15" y="82"  width="8" height="10" fill="#F8A8C8"/>
  <rect x="19" y="92"  width="8" height="10" fill="#F8A8C8"/>
  <rect x="23" y="102" width="8" height="10" fill="#F8A8C8"/>
  <rect x="27" y="112" width="8" height="10" fill="#F8A8C8"/>
  <!-- Cup shadows (right stripe) -->
  <rect x="80" y="72"  width="8" height="10" fill="#9B2556"/>
  <rect x="77" y="82"  width="8" height="10" fill="#9B2556"/>
  <rect x="73" y="92"  width="8" height="10" fill="#9B2556"/>
  <rect x="69" y="102" width="8" height="10" fill="#9B2556"/>
  <rect x="65" y="112" width="8" height="10" fill="#9B2556"/>

  <!-- Face: left eye -->
  <rect x="26" y="84" width="10" height="10" fill="#FFFFFF"/>
  <rect x="28" y="86" width="6"  height="6"  fill="#0D0020"/>
  <rect x="30" y="87" width="2"  height="2"  fill="#FFFFFF"/>
  <!-- Face: right eye -->
  <rect x="64" y="84" width="10" height="10" fill="#FFFFFF"/>
  <rect x="66" y="86" width="6"  height="6"  fill="#0D0020"/>
  <rect x="68" y="87" width="2"  height="2"  fill="#FFFFFF"/>

  <!-- Smile -->
  <rect x="32" y="104" width="4"  height="4" fill="#9B2556"/>
  <rect x="36" y="108" width="28" height="4" fill="#9B2556"/>
  <rect x="64" y="104" width="4"  height="4" fill="#9B2556"/>

  <!-- Rosy cheeks -->
  <rect x="27" y="97" width="10" height="6" fill="#FFB0C8"/>
  <rect x="63" y="97" width="10" height="6" fill="#FFB0C8"/>
</svg>
